<svg id="Layer_1" data-name="Layer 1" xmlns="http://www.w3.org/2000/svg" viewBox="0 0 50 50"><defs><style>.cls-1{fill:#cc4e0b;}.cls-2{fill:#fff;}</style></defs><title>social</title><path class="cls-1" d="M49.58,25.13A24.61,24.61,0,1,1,25,.56C38.38,0.42,49.44,11.48,49.58,25.13Z"/><path class="cls-2" d="M39,15.43A3.43,3.43,0,0,0,35.57,12H15.43A3.43,3.43,0,0,0,12,15.43V35.57A3.43,3.43,0,0,0,15.43,39H35.57A3.43,3.43,0,0,0,39,35.57V15.43ZM25,19.88a5.22,5.22,0,1,1-5.39,5.25A5.28,5.28,0,0,1,25,19.88ZM35,34.45C35,35,34.88,35,34.32,35H15.62C15,35,15,35,15,34.45V23h2a7.54,7.54,0,0,0-.35,2.36A8.18,8.18,0,0,0,25,33.44a8.19,8.19,0,0,0,8.33-8.09A7.43,7.43,0,0,0,33,23h2V34.45Zm0-15.63A1.19,1.19,0,0,1,33.81,20H31.19A1.19,1.19,0,0,1,30,18.81V16.19A1.19,1.19,0,0,1,31.19,15h2.62A1.19,1.19,0,0,1,35,16.19v2.62Z"/></svg>