<?xml version="1.0" encoding="utf-8"?>
<!-- Generator: Adobe Illustrator 23.0.1, SVG Export Plug-In . SVG Version: 6.00 Build 0)  -->
<svg version="1.1" id="Layer_1" xmlns="http://www.w3.org/2000/svg" xmlns:xlink="http://www.w3.org/1999/xlink" x="0px" y="0px"
	 viewBox="0 0 200 200" style="enable-background:new 0 0 200 200;" xml:space="preserve">
<style type="text/css">
	.st0{fill:#FFE473;}
	.st1{fill:#03244D;}
	.st2{fill:#DD550C;}
	.st3{fill:#FF8D43;}
	.st4{fill:#FFB68D;}
	.st5{fill:#FFAE1F;}
	.st6{fill:#F9B26B;}
	.st7{fill:#EFC075;}
	.st8{fill:#FFD385;}
	.st9{fill:#FFA748;}
</style>
<g>
	<g>
		<path class="st0" d="M86.7,97.4c-0.1-0.2-0.2-0.5-0.4-0.6c0-0.1-0.1-0.2-0.3-0.2l0,0l0,0c-0.1,0-0.2,0-0.3,0.2
			c-0.2,0.2-0.3,0.4-0.3,0.7c0,0.4,0.5,0.7,0.9,0.7C86.6,98.1,86.8,97.7,86.7,97.4z M86.2,97.7c-0.2,0.1-0.4-0.1-0.4-0.3
			c0-0.1,0-0.3,0.2-0.3c0.1,0.1,0.2,0.2,0.3,0.3C86.2,97.4,86.3,97.7,86.2,97.7z"/>
		<polygon class="st1" points="97.3,122 95.6,122 92.4,120.2 91.3,121.1 95,124.3 95.2,126.1 97.3,126.6 		"/>
		<polygon class="st1" points="91.3,121.1 89.5,118.7 89.5,120.5 92.5,124.1 93.5,124.1 94.5,125.9 96.6,127.3 96.4,129.2 
			90.6,130.5 97.3,129.9 97.3,126.6 95,126.1 95,124.3 		"/>
		<polygon class="st1" points="97.3,69.1 93.3,66.9 89.4,69.1 		"/>
		<polygon class="st1" points="94.9,79.7 90.4,82.8 83.9,81 		"/>
		<polygon class="st1" points="97.3,71.1 84.8,72.7 92.9,70 		"/>
		<polygon class="st2" points="94.9,79.7 97.3,76 97.3,81 		"/>
		<polygon class="st1" points="83.9,81 80.6,89.7 76.7,87.8 		"/>
		<polygon class="st1" points="76.6,80.2 72.6,78 72.2,82.3 		"/>
		<polygon class="st1" points="72.6,78 72.6,71.5 67.3,69.3 		"/>
		<polygon class="st1" points="80.6,89.7 80.6,95.2 77.2,95.2 		"/>
		<polygon class="st1" points="80.8,99 77.2,101.4 77.2,98.1 		"/>
		<polygon class="st1" points="75.1,95.2 73.9,90.7 71.7,98.2 		"/>
		<polygon class="st1" points="69.8,91.8 69.8,97.1 66.6,97.8 		"/>
		<polygon class="st1" points="82.2,104.5 79.1,103.2 80,106.9 		"/>
		<polygon class="st1" points="72.2,105 72.4,112.3 77.5,114.6 		"/>
		<polygon class="st1" points="68,110.3 72.7,115.6 69.8,124.2 		"/>
		<polygon class="st1" points="90.6,130.5 84.6,130 86.9,133.2 		"/>
		<polygon class="st1" points="97.3,69.1 95.6,68.1 97.3,66 		"/>
		<polygon class="st2" points="97.3,71.1 97.3,76 94.6,71.5 		"/>
		<polygon class="st1" points="83.9,81 84.8,76.8 78.9,81.3 		"/>
		<polygon class="st1" points="72.6,78 72.2,82.3 70.2,79.3 		"/>
		<polygon class="st1" points="69.8,91.8 71.7,91.3 69.8,97.1 		"/>
		<polygon class="st1" points="71.7,98.2 73.7,101.4 75.1,95.2 		"/>
		<polygon class="st1" points="80.8,99 79.1,103.2 77.2,101.4 		"/>
		<polygon class="st1" points="69.8,97.1 68.2,102 66.6,97.8 		"/>
		<polygon class="st1" points="73.7,101.4 72.2,105 75.5,111 		"/>
		<polygon class="st1" points="79.9,119.2 78.3,121.9 81.6,127.1 		"/>
		<polygon class="st1" points="94.7,74.1 91,73.6 83.9,81 		"/>
		<polygon class="st2" points="69.8,91.8 73.9,86 73.9,90.7 		"/>
		<polygon class="st2" points="68.2,102 68,110.3 65.9,109.1 		"/>
		<polygon class="st2" points="75.5,111 82.6,111.2 75,108.1 		"/>
		<polygon class="st2" points="72.7,115.6 74.1,119.9 69.8,124.2 		"/>
		<polygon class="st2" points="79.9,119.2 74.1,119.9 78.3,121.9 		"/>
		<polygon class="st2" points="80.6,89.7 86,93.7 84,90 		"/>
		<polygon class="st2" points="67.3,69.3 70.2,79.3 72.6,78 		"/>
		<polygon class="st1" points="70.2,79.3 68.5,82.4 67.4,78.4 		"/>
		<polygon class="st1" points="66.6,97.8 68.2,102 65.9,109.1 		"/>
		<polygon class="st1" points="71.7,98.2 72.2,105 73.7,101.4 		"/>
		<polygon class="st1" points="74.1,119.9 77.5,114.6 79.9,119.2 		"/>
		<polygon class="st1" points="77.5,114.6 86.9,108.4 81.8,115.6 		"/>
		<polygon class="st2" points="68,110.3 65.9,117.5 69.8,124.2 		"/>
		<polygon class="st1" points="78.9,81.3 76.7,87.8 73.9,86 		"/>
		<polygon class="st2" points="83.9,81 76.7,87.8 78.9,81.3 		"/>
		<polygon class="st1" points="97.3,76 94.6,71.5 94.9,79.7 		"/>
		<polygon class="st1" points="83.3,120.5 87.6,120.7 88.2,124 		"/>
		<polygon class="st1" points="90.7,101 90.2,107.3 87.1,103.8 		"/>
		<polygon class="st1" points="93.8,103 90.5,95.9 94.9,95.2 		"/>
		<polygon class="st1" points="93.8,103 93.8,114.2 91.5,111 		"/>
		<polygon class="st1" points="91.5,111 88.9,114.5 93.8,114.2 		"/>
		<polygon class="st1" points="88.9,114.5 89.5,118.7 93.8,114.2 		"/>
		<polygon class="st2" points="87.1,103.8 86.9,108.4 90.2,107.3 		"/>
		<polygon class="st2" points="97.3,90.7 94.9,95.2 97.3,100.5 		"/>
		<polygon class="st2" points="86.9,108.4 88.9,114.5 81.8,115.6 		"/>
		<polygon class="st2" points="90.2,107.3 91.5,111 86.9,108.4 		"/>
		<polygon class="st2" points="90.7,101 93.8,103 90.2,107.3 		"/>
		<polygon class="st3" points="93.8,103 90.5,95.9 90.7,101 		"/>
		<polygon class="st3" points="86.9,108.4 91.5,111 88.9,114.5 		"/>
		<polygon class="st3" points="82.2,104.5 84.9,101.6 87.1,103.8 		"/>
		<polygon class="st3" points="88.9,114.5 87.6,120.7 89.5,118.7 		"/>
		<polygon class="st4" points="84.9,101.6 80.8,99 82.2,104.5 		"/>
		<polygon class="st2" points="88.9,114.5 83.3,120.5 81.8,115.6 		"/>
		<polygon class="st2" points="94.9,95.2 92.7,88.3 90.5,95.9 		"/>
		<polygon class="st5" points="94.9,95.2 95.3,89.6 97.3,90.7 		"/>
		<polygon class="st2" points="87.1,103.8 86.9,108.4 82.2,104.5 		"/>
		<polygon class="st6" points="88.9,114.5 87.6,120.7 83.3,120.5 		"/>
		<polygon class="st6" points="86.9,108.4 82.2,104.5 82.6,111.2 		"/>
		<polygon class="st6" points="80.8,99 80.6,95.2 77.2,95.2 		"/>
		<polygon class="st1" points="92.7,88.3 97.3,90.7 97.3,81 		"/>
		<polygon class="st7" points="97.3,81 94.9,79.7 92.7,88.3 		"/>
		<polygon class="st7" points="93.8,114.2 92.4,120.2 91.3,121.1 89.5,118.7 		"/>
		<polygon class="st7" points="80.8,99 82.2,104.5 79.1,103.2 		"/>
		<polygon class="st7" points="91,73.6 84.8,76.8 83.9,81 		"/>
		<polygon class="st7" points="76.7,87.8 73.9,90.7 73.9,86 		"/>
		<polygon class="st3" points="94.9,79.7 92.7,88.3 90.4,82.8 		"/>
		<polygon class="st3" points="76.7,87.8 80.6,89.7 73.9,90.7 		"/>
		<polygon class="st3" points="77.2,95.2 77.2,101.4 75.1,95.2 		"/>
		<polygon class="st3" points="73.9,90.7 69.7,97.3 71.7,91.3 		"/>
		<polygon class="st3" points="83.9,81 94.7,74.1 94.9,79.7 		"/>
		<path class="st3" d="M83.3,120.5"/>
		<polygon class="st3" points="81.6,127.1 88.2,124 83.3,120.5 		"/>
		<polygon class="st3" points="73.9,86 68.3,87.5 69.8,91.8 		"/>
		<polygon class="st3" points="76.6,80.2 78.9,81.3 72.2,82.3 		"/>
		<polygon class="st3" points="77.2,95.2 73.9,90.7 75.1,95.2 		"/>
		<polygon class="st3" points="90.2,86.8 90.5,95.9 87.5,96.7 		"/>
		<polygon class="st3" points="77.2,101.4 73.7,101.4 75.1,95.2 		"/>
		<polygon class="st3" points="82.2,104.5 82.6,111.2 80,106.9 		"/>
		<polygon class="st3" points="61.1,125.4 69.8,124.2 65.9,117.5 		"/>
		<polygon class="st1" points="78.3,121.9 73.7,127 74.1,119.9 		"/>
		<polygon class="st3" points="73.9,86 73.8,85.9 72.2,82.3 68.3,87.5 		"/>
		<polygon class="st3" points="69.8,91.8 63.3,94 66.6,97.8 		"/>
		<polygon class="st2" points="68.3,87.5 69.8,91.8 63.3,94 		"/>
		<polygon class="st3" points="77.2,95.2 73.9,90.7 80.6,89.7 		"/>
		<polygon class="st3" points="82.3,96.5 80.8,99 80.6,95.2 		"/>
		<polygon class="st3" points="87.5,96.7 90.5,95.9 90.7,101 		"/>
		<polygon class="st3" points="87.5,96.7 86,93.7 84.3,94.8 		"/>
		<polygon class="st3" points="90.2,86.8 90.4,82.8 92.7,88.3 		"/>
		<polygon class="st3" points="83.9,81 84,90 80.6,89.7 		"/>
		<polygon class="st3" points="94.7,74.1 84.8,72.7 94.6,71.5 		"/>
		<polygon class="st3" points="81.8,115.6 83.3,120.5 79.9,119.2 		"/>
		<polygon class="st3" points="65.9,109.1 65.9,117.5 56.9,116.1 		"/>
		<polygon class="st8" points="83.9,81 88.5,85.6 84,90 		"/>
		<polygon class="st3" points="90.4,82.8 88.5,85.6 90.2,86.8 		"/>
		<polygon class="st3" points="90.2,86.8 92.7,88.3 90.5,95.9 		"/>
		<polygon class="st3" points="86,88 86,93.7 87.8,90.3 		"/>
		<polygon class="st3" points="63.3,94 66.6,97.8 61,100.4 		"/>
		<polygon class="st1" points="61,100.4 65.9,109.1 58.3,109.5 		"/>
		<polygon class="st2" points="77.2,101.4 75,108.1 73.7,101.4 		"/>
		<polygon class="st3" points="75,108.1 79.1,103.2 80,106.9 		"/>
		<polygon class="st3" points="72.2,105 68.2,102 68,110.3 		"/>
		<polygon class="st3" points="81.8,115.6 77.5,114.6 79.9,119.2 		"/>
		<polygon class="st2" points="79.9,119.2 83.3,120.5 81.6,127.1 		"/>
		<polygon class="st2" points="66.6,97.8 65.9,109.1 61,100.4 		"/>
		<polygon class="st3" points="68.2,102 71.7,98.2 72.2,105 		"/>
		<polygon class="st3" points="72.2,105 72.4,112.3 68,110.3 		"/>
		<polygon class="st3" points="79.1,103.2 77.2,101.4 75,108.1 		"/>
		<polygon class="st3" points="80,106.9 82.6,111.2 75,108.1 		"/>
		<polygon class="st3" points="84.9,101.6 87.6,100.6 87.1,103.8 		"/>
		<polygon class="st3" points="80.6,89.7 82.6,93.4 80.6,95.2 		"/>
		<polygon class="st3" points="90.4,82.8 83.9,81 88.5,85.6 		"/>
		<polygon class="st3" points="59.8,109.4 61,112.9 65.9,109.1 		"/>
		<polygon class="st3" points="89.5,118.7 89.5,120.5 92.5,124.1 88.2,124 87.6,120.7 		"/>
		<polygon class="st3" points="82.6,111.2 77.5,114.6 75.5,111 		"/>
		<polygon class="st3" points="77.5,114.6 72.7,115.6 68,110.3 		"/>
		<polygon class="st1" points="65.9,117.5 61.1,125.4 59.8,116.5 		"/>
		<polygon class="st3" points="71.7,98.2 69.7,97.3 73.9,90.7 		"/>
		<polygon class="st3" points="86,93.7 87.8,90.3 87.5,96.7 		"/>
		<polygon class="st3" points="84.3,94.8 82.6,93.4 80.6,95.2 		"/>
		<polygon class="st3" points="87.8,90.3 90.2,86.8 86,88 		"/>
		<polygon class="st3" points="68,110.3 65.9,109.1 65.9,117.5 		"/>
		<polygon class="st3" points="74.1,119.9 73.7,127 69.8,124.2 		"/>
		<polygon class="st1" points="69.8,124.2 63.3,130.5 63.3,125.1 		"/>
		<polygon class="st3" points="88.2,124 84.6,130 90.6,130.5 		"/>
		<polygon class="st3" points="92.5,124.1 90.6,130.5 94.5,125.9 93.5,124.1 		"/>
		<polygon class="st3" points="90.7,132.3 89.7,139.2 97.3,134.5 		"/>
		<polygon class="st3" points="97.3,134.5 97.3,143.4 94.7,139.9 		"/>
		<polygon class="st1" points="90.2,86.8 87.5,96.7 87.8,90.3 		"/>
		<polygon class="st3" points="77.2,95.2 80.8,99 77.2,98.1 		"/>
		<polygon class="st3" points="69.7,97.3 68.2,102 71.7,98.2 		"/>
		<polygon class="st3" points="77.5,114.6 74.1,119.9 72.7,115.6 		"/>
		<polygon class="st3" points="94.5,125.9 96.6,127.3 96.4,129.2 90.6,130.5 		"/>
		<polygon class="st1" points="97.3,134.5 93.4,142.6 91.5,138 		"/>
		<polygon class="st3" points="90.7,132.3 89.7,139.2 86.4,134.5 		"/>
		<polygon class="st3" points="78.3,121.9 81.6,127.1 73.7,127 		"/>
		<polygon class="st3" points="69.8,124.2 68.4,130.4 73.7,127 		"/>
		<polygon class="st3" points="88.2,124 84.6,130 81.6,127.1 		"/>
		<polygon class="st2" points="88.2,124 92.5,124.1 90.6,130.5 		"/>
		<polygon class="st1" points="90.7,132.3 97.3,129.9 97.3,134.5 		"/>
		<polygon class="st3" points="90.7,132.3 90.6,130.5 82.7,136.4 		"/>
		<polygon class="st3" points="81.6,127.1 72.5,133.2 73.7,127 		"/>
		<polygon class="st3" points="69.8,124.2 69,128.1 63.3,130.5 		"/>
		<polygon class="st2" points="90.7,132.3 90.6,130.5 97.3,129.9 		"/>
		<polygon class="st2" points="86.9,133.2 84.6,130 82.7,136.4 		"/>
		<polygon class="st2" points="81.6,127.1 82.2,132.2 72.5,133.2 		"/>
		<polygon class="st2" points="72.2,82.3 68.5,82.4 70.2,84.9 		"/>
		<polygon class="st3" points="70.2,79.3 62.7,74.1 67.3,69.3 		"/>
		<polygon class="st2" points="67.3,69.3 69.5,61.6 72.6,71.5 		"/>
		<polygon class="st2" points="69.5,61.6 77.2,65.4 73.4,62.4 		"/>
		<polygon class="st1" points="68.3,87.5 61.4,93.4 63.3,94 		"/>
		<polygon class="st1" points="84.6,130 81.6,127.1 82.7,136.4 		"/>
		<polygon class="st2" points="80.6,89.7 82.6,93.4 86,93.7 		"/>
		<polygon class="st2" points="86,88 86,93.7 84,90 		"/>
		<polygon class="st2" points="90.2,86.8 88.5,85.6 86,88 		"/>
		<polygon class="st2" points="70.2,79.3 72.2,82.3 68.5,82.4 		"/>
		<polygon class="st2" points="72.6,71.5 76.6,80.2 72.6,78 		"/>
		<polygon class="st3" points="82.3,96.5 84.9,101.6 80.8,99 		"/>
		<polygon class="st3" points="84.9,101.6 87.6,100.6 84.3,100.5 		"/>
		<polygon class="st3" points="87.6,100.6 88.5,102.7 87.1,103.8 		"/>
		<polygon class="st3" points="86,93.7 82.6,93.4 84.3,94.8 		"/>
		<g>
			<path class="st1" d="M86.7,96l-2.4-1.2l-3.8,0.4l1.7,1.4c0,0-1.2,5.2,5.3,4l0.9,2.1l2.2-1.7l-3.3-4.4L86.7,96z"/>
			<g>
				<path class="st1" d="M85.5,97.2c1,0,1.9,0.6,2.3,1.4c0.1-0.2,0.1-0.5,0.1-0.7c0-1.2-1.1-2.2-2.4-2.2s-2.4,1-2.4,2.2
					c0,0.3,0.1,0.5,0.1,0.7C83.6,97.8,84.4,97.2,85.5,97.2z"/>
				<path class="st2" d="M85.5,100c1,0,1.9-0.6,2.3-1.4c-0.3-0.8-1.2-1.4-2.3-1.4c-1,0-1.9,0.6-2.3,1.4C83.6,99.4,84.4,100,85.5,100
					z"/>
			</g>
			<ellipse class="st1" cx="86" cy="97.3" rx="0.7" ry="0.8"/>
		</g>
		<polygon class="st3" points="95.3,89.6 92.7,88.3 94.9,95.2 		"/>
		<polygon class="st3" points="92.4,120.2 97.3,118.1 95.6,122 		"/>
		<polygon class="st3" points="95.6,122 97.3,118.1 97.3,122 		"/>
		<polygon class="st2" points="97.3,118.1 93.8,114.2 92.4,120.2 		"/>
		<polygon class="st1" points="93.8,114.2 97.3,108.4 97.3,118.1 		"/>
		<polygon class="st3" points="93.8,114.2 93.8,103 97.3,108.4 		"/>
		<polygon class="st3" points="93.8,103 91.5,111 90.2,107.3 		"/>
		<polygon class="st2" points="93.8,103 97.3,100.5 97.3,105.5 		"/>
		<polygon class="st1" points="93.8,103 94.9,95.2 97.3,100.5 		"/>
		<polygon class="st3" points="93.8,103 97.3,108.4 97.3,105.5 		"/>
		<polygon class="st6" points="84.8,72.7 82.4,69.2 80.6,74.3 		"/>
		<polygon class="st9" points="84.8,72.7 89.4,69.1 82.4,69.2 		"/>
		<polygon class="st2" points="89.4,69.1 97.3,71.1 97.3,69.1 		"/>
		<polygon class="st2" points="84.8,72.7 92.9,70 89.4,69.1 		"/>
		<polygon class="st8" points="89.4,69.1 93.3,66.9 82.4,69.2 		"/>
		<polygon class="st8" points="93.3,66.9 97.3,66 95.6,68.1 		"/>
		<polygon class="st3" points="84.8,76.8 84.8,72.7 91,73.6 		"/>
		<polygon class="st8" points="78.9,81.3 73.9,86 72.2,82.3 		"/>
		<polygon class="st8" points="78.9,81.3 80.6,74.3 76.6,80.2 		"/>
		<polygon class="st3" points="84.8,72.7 78.9,81.3 80.6,74.3 		"/>
		<polygon class="st3" points="84.8,76.8 83.2,75.1 84.8,72.7 		"/>
		<polygon class="st3" points="84.8,76.8 82,76.8 78.9,81.3 		"/>
		<polygon class="st1" points="84.8,76.8 83.2,75.1 82,76.8 		"/>
		<polygon class="st8" points="80.6,74.3 77.2,65.4 82.4,69.2 		"/>
		<polygon class="st3" points="67.3,69.3 64.2,64.3 69.5,61.6 		"/>
		<polygon class="st2" points="67.3,69.3 64.2,64.3 62.7,74.1 		"/>
		<polygon class="st3" points="77.2,65.4 72.6,71.5 69.5,61.6 		"/>
		<polygon class="st1" points="77.2,65.4 80.6,74.3 72.6,71.5 		"/>
		<polygon class="st3" points="80.6,74.3 76.6,80.2 72.6,71.5 		"/>
	</g>
</g>
<g>
	<g>
		<path class="st0" d="M108.3,98.2c0.4,0,0.9-0.3,0.9-0.7c0-0.3-0.1-0.5-0.3-0.7c-0.1-0.2-0.2-0.2-0.3-0.2l0,0l0,0
			c-0.2,0-0.3,0.1-0.3,0.2c-0.2,0.1-0.3,0.4-0.4,0.6C107.8,97.7,108,98.1,108.3,98.2z M108.3,97.4c0.1-0.1,0.2-0.2,0.3-0.3
			c0.2,0,0.2,0.2,0.2,0.3c0,0.2-0.2,0.4-0.4,0.3C108.3,97.7,108.4,97.4,108.3,97.4z"/>
		<polygon class="st1" points="97.3,126.6 99.4,126.1 99.6,124.3 103.3,121.1 102.2,120.2 99,122 97.3,122 		"/>
		<polygon class="st1" points="99.6,124.3 99.6,126.1 97.3,126.6 97.3,129.9 104,130.5 98.2,129.2 98,127.3 100.1,125.9 
			101.1,124.1 102.1,124.1 105.1,120.5 105.1,118.7 103.3,121.1 		"/>
		<polygon class="st1" points="105.2,69.1 101.3,66.9 97.3,69.1 		"/>
		<polygon class="st1" points="110.7,81 104.2,82.8 99.7,79.7 		"/>
		<polygon class="st1" points="101.7,70 109.8,72.7 97.3,71.1 		"/>
		<polygon class="st2" points="97.3,81 97.3,76 99.7,79.7 		"/>
		<polygon class="st1" points="117.9,87.8 114,89.7 110.7,81 		"/>
		<polygon class="st1" points="122.4,82.3 122,78 118,80.2 		"/>
		<polygon class="st1" points="127.3,69.3 122,71.5 122,78 		"/>
		<polygon class="st1" points="117.4,95.2 114,95.2 114,89.7 		"/>
		<polygon class="st1" points="117.4,98.1 117.4,101.4 113.8,99 		"/>
		<polygon class="st1" points="122.9,98.2 120.7,90.7 119.5,95.2 		"/>
		<polygon class="st1" points="128,97.8 124.8,97.1 124.8,91.8 		"/>
		<polygon class="st1" points="114.6,106.9 115.5,103.2 112.4,104.5 		"/>
		<polygon class="st1" points="117.1,114.6 122.2,112.3 122.4,105 		"/>
		<polygon class="st1" points="124.8,124.2 121.9,115.6 126.6,110.3 		"/>
		<polygon class="st1" points="107.7,133.2 110,130 104,130.5 		"/>
		<polygon class="st1" points="97.3,66 99,68.1 97.3,69.1 		"/>
		<polygon class="st2" points="100,71.5 97.3,76 97.3,71.1 		"/>
		<polygon class="st1" points="115.7,81.3 109.8,76.8 110.7,81 		"/>
		<polygon class="st1" points="124.4,79.3 122.4,82.3 122,78 		"/>
		<polygon class="st1" points="124.8,97.1 122.9,91.3 124.8,91.8 		"/>
		<polygon class="st1" points="119.5,95.2 120.9,101.4 122.9,98.2 		"/>
		<polygon class="st1" points="117.4,101.4 115.5,103.2 113.8,99 		"/>
		<polygon class="st1" points="128,97.8 126.4,102 124.8,97.1 		"/>
		<polygon class="st1" points="119.1,111 122.4,105 120.9,101.4 		"/>
		<polygon class="st1" points="113,127.1 116.3,121.9 114.7,119.2 		"/>
		<polygon class="st1" points="110.7,81 103.6,73.6 99.9,74.1 		"/>
		<polygon class="st2" points="120.7,90.7 120.7,86 124.8,91.8 		"/>
		<polygon class="st2" points="128.7,109.1 126.6,110.3 126.4,102 		"/>
		<polygon class="st2" points="119.6,108.1 112,111.2 119.1,111 		"/>
		<polygon class="st2" points="124.8,124.2 120.5,119.9 121.9,115.6 		"/>
		<polygon class="st2" points="116.3,121.9 120.5,119.9 114.7,119.2 		"/>
		<polygon class="st2" points="110.6,90 108.6,93.7 114,89.7 		"/>
		<polygon class="st2" points="122,78 124.4,79.3 127.3,69.3 		"/>
		<polygon class="st1" points="127.2,78.4 126.1,82.4 124.4,79.3 		"/>
		<polygon class="st1" points="128.7,109.1 126.4,102 128,97.8 		"/>
		<polygon class="st1" points="120.9,101.4 122.4,105 122.9,98.2 		"/>
		<polygon class="st1" points="114.7,119.2 117.1,114.6 120.5,119.9 		"/>
		<polygon class="st1" points="112.8,115.6 107.7,108.4 117.1,114.6 		"/>
		<polygon class="st2" points="124.8,124.2 128.7,117.5 126.6,110.3 		"/>
		<polygon class="st1" points="120.7,86 117.9,87.8 115.7,81.3 		"/>
		<polygon class="st2" points="115.7,81.3 117.9,87.8 110.7,81 		"/>
		<polygon class="st1" points="99.7,79.7 100,71.5 97.3,76 		"/>
		<polygon class="st1" points="106.4,124 107,120.7 111.3,120.5 		"/>
		<polygon class="st1" points="107.5,103.8 104.4,107.3 103.9,101 		"/>
		<polygon class="st1" points="99.7,95.2 104.1,95.9 100.8,103 		"/>
		<polygon class="st1" points="103.1,111 100.8,114.2 100.8,103 		"/>
		<polygon class="st1" points="100.8,114.2 105.7,114.5 103.1,111 		"/>
		<polygon class="st1" points="100.8,114.2 105.1,118.7 105.7,114.5 		"/>
		<polygon class="st2" points="104.4,107.3 107.7,108.4 107.5,103.8 		"/>
		<polygon class="st2" points="97.3,100.5 99.7,95.2 97.3,90.7 		"/>
		<polygon class="st2" points="112.8,115.6 105.7,114.5 107.7,108.4 		"/>
		<polygon class="st2" points="107.7,108.4 103.1,111 104.4,107.3 		"/>
		<polygon class="st2" points="104.4,107.3 100.8,103 103.9,101 		"/>
		<polygon class="st3" points="103.9,101 104.1,95.9 100.8,103 		"/>
		<polygon class="st3" points="105.7,114.5 103.1,111 107.7,108.4 		"/>
		<polygon class="st3" points="107.5,103.8 109.7,101.6 112.4,104.5 		"/>
		<polygon class="st3" points="105.1,118.7 107,120.7 105.7,114.5 		"/>
		<polygon class="st4" points="112.4,104.5 113.8,99 109.7,101.6 		"/>
		<polygon class="st2" points="112.8,115.6 111.3,120.5 105.7,114.5 		"/>
		<polygon class="st2" points="104.1,95.9 101.9,88.3 99.7,95.2 		"/>
		<polygon class="st5" points="97.3,90.7 99.3,89.6 99.7,95.2 		"/>
		<polygon class="st2" points="112.4,104.5 107.7,108.4 107.5,103.8 		"/>
		<polygon class="st6" points="111.3,120.5 107,120.7 105.7,114.5 		"/>
		<polygon class="st6" points="112,111.2 112.4,104.5 107.7,108.4 		"/>
		<polygon class="st6" points="117.4,95.2 114,95.2 113.8,99 		"/>
		<polygon class="st1" points="97.3,81 97.3,90.7 101.9,88.3 		"/>
		<polygon class="st7" points="101.9,88.3 99.7,79.7 97.3,81 		"/>
		<polygon class="st7" points="105.1,118.7 103.3,121.1 102.2,120.2 100.8,114.2 		"/>
		<polygon class="st7" points="115.5,103.2 112.4,104.5 113.8,99 		"/>
		<polygon class="st7" points="110.7,81 109.8,76.8 103.6,73.6 		"/>
		<polygon class="st7" points="120.7,86 120.7,90.7 117.9,87.8 		"/>
		<polygon class="st3" points="104.2,82.8 101.9,88.3 99.7,79.7 		"/>
		<polygon class="st3" points="120.7,90.7 114,89.7 117.9,87.8 		"/>
		<polygon class="st3" points="119.5,95.2 117.4,101.4 117.4,95.2 		"/>
		<polygon class="st3" points="122.9,91.3 124.9,97.3 120.7,90.7 		"/>
		<polygon class="st3" points="99.7,79.7 99.9,74.1 110.7,81 		"/>
		<path class="st3" d="M111.3,120.5"/>
		<polygon class="st3" points="111.3,120.5 106.4,124 113,127.1 		"/>
		<polygon class="st3" points="124.8,91.8 126.3,87.5 120.7,86 		"/>
		<polygon class="st3" points="122.4,82.3 115.7,81.3 118,80.2 		"/>
		<polygon class="st3" points="119.5,95.2 120.7,90.7 117.4,95.2 		"/>
		<polygon class="st3" points="107.1,96.7 104.1,95.9 104.4,86.8 		"/>
		<polygon class="st3" points="119.5,95.2 120.9,101.4 117.4,101.4 		"/>
		<polygon class="st3" points="114.6,106.9 112,111.2 112.4,104.5 		"/>
		<polygon class="st3" points="128.7,117.5 124.8,124.2 133.5,125.4 		"/>
		<polygon class="st1" points="120.5,119.9 120.9,127 116.3,121.9 		"/>
		<polygon class="st3" points="126.3,87.5 122.4,82.3 120.8,85.9 120.7,86 		"/>
		<polygon class="st3" points="128,97.8 131.3,94 124.8,91.8 		"/>
		<polygon class="st2" points="131.3,94 124.8,91.8 126.3,87.5 		"/>
		<polygon class="st3" points="114,89.7 120.7,90.7 117.4,95.2 		"/>
		<polygon class="st3" points="114,95.2 113.8,99 112.3,96.5 		"/>
		<polygon class="st3" points="103.9,101 104.1,95.9 107.1,96.7 		"/>
		<polygon class="st3" points="110.3,94.8 108.6,93.7 107.1,96.7 		"/>
		<polygon class="st3" points="101.9,88.3 104.2,82.8 104.4,86.8 		"/>
		<polygon class="st3" points="114,89.7 110.6,90 110.7,81 		"/>
		<polygon class="st3" points="100,71.5 109.8,72.7 99.9,74.1 		"/>
		<polygon class="st3" points="114.7,119.2 111.3,120.5 112.8,115.6 		"/>
		<polygon class="st3" points="137.7,116.1 128.7,117.5 128.7,109.1 		"/>
		<polygon class="st8" points="110.6,90 106.1,85.6 110.7,81 		"/>
		<polygon class="st3" points="104.4,86.8 106.1,85.6 104.2,82.8 		"/>
		<polygon class="st3" points="104.1,95.9 101.9,88.3 104.4,86.8 		"/>
		<polygon class="st3" points="106.8,90.3 108.6,93.7 108.6,88 		"/>
		<polygon class="st3" points="133.6,100.4 128,97.8 131.3,94 		"/>
		<polygon class="st1" points="136.3,109.5 128.7,109.1 133.6,100.4 		"/>
		<polygon class="st2" points="120.9,101.4 119.6,108.1 117.4,101.4 		"/>
		<polygon class="st3" points="114.6,106.9 115.5,103.2 119.6,108.1 		"/>
		<polygon class="st3" points="126.6,110.3 126.4,102 122.4,105 		"/>
		<polygon class="st3" points="114.7,119.2 117.1,114.6 112.8,115.6 		"/>
		<polygon class="st2" points="113,127.1 111.3,120.5 114.7,119.2 		"/>
		<polygon class="st2" points="133.6,100.4 128.7,109.1 128,97.8 		"/>
		<polygon class="st3" points="122.4,105 122.9,98.2 126.4,102 		"/>
		<polygon class="st3" points="126.6,110.3 122.2,112.3 122.4,105 		"/>
		<polygon class="st3" points="119.6,108.1 117.4,101.4 115.5,103.2 		"/>
		<polygon class="st3" points="119.6,108.1 112,111.2 114.6,106.9 		"/>
		<polygon class="st3" points="107.5,103.8 107,100.6 109.7,101.6 		"/>
		<polygon class="st3" points="114,95.2 112,93.4 114,89.7 		"/>
		<polygon class="st3" points="106.1,85.6 110.7,81 104.2,82.8 		"/>
		<polygon class="st3" points="128.7,109.1 133.6,112.9 134.8,109.4 		"/>
		<polygon class="st3" points="107,120.7 106.4,124 102.1,124.1 105.1,120.5 105.1,118.7 		"/>
		<polygon class="st3" points="119.1,111 117.1,114.6 112,111.2 		"/>
		<polygon class="st3" points="126.6,110.3 121.9,115.6 117.1,114.6 		"/>
		<polygon class="st1" points="134.8,116.5 133.5,125.4 128.7,117.5 		"/>
		<polygon class="st3" points="120.7,90.7 124.9,97.3 122.9,98.2 		"/>
		<polygon class="st3" points="107.1,96.7 106.8,90.3 108.6,93.7 		"/>
		<polygon class="st3" points="114,95.2 112,93.4 110.3,94.8 		"/>
		<polygon class="st3" points="108.6,88 104.4,86.8 106.8,90.3 		"/>
		<polygon class="st3" points="128.7,117.5 128.7,109.1 126.6,110.3 		"/>
		<polygon class="st3" points="124.8,124.2 120.9,127 120.5,119.9 		"/>
		<polygon class="st1" points="131.3,125.1 131.3,130.5 124.8,124.2 		"/>
		<polygon class="st3" points="104,130.5 110,130 106.4,124 		"/>
		<polygon class="st3" points="101.1,124.1 100.1,125.9 104,130.5 102.1,124.1 		"/>
		<polygon class="st3" points="97.3,134.5 104.9,139.2 103.9,132.3 		"/>
		<polygon class="st3" points="99.9,139.9 97.3,143.4 97.3,134.5 		"/>
		<polygon class="st1" points="106.8,90.3 107.1,96.7 104.4,86.8 		"/>
		<polygon class="st3" points="117.4,98.1 113.8,99 117.4,95.2 		"/>
		<polygon class="st3" points="122.9,98.2 126.4,102 124.9,97.3 		"/>
		<polygon class="st3" points="121.9,115.6 120.5,119.9 117.1,114.6 		"/>
		<polygon class="st3" points="104,130.5 98.2,129.2 98,127.3 100.1,125.9 		"/>
		<polygon class="st1" points="103.1,138 101.2,142.6 97.3,134.5 		"/>
		<polygon class="st3" points="108.2,134.5 104.9,139.2 103.9,132.3 		"/>
		<polygon class="st3" points="120.9,127 113,127.1 116.3,121.9 		"/>
		<polygon class="st3" points="120.9,127 126.2,130.4 124.8,124.2 		"/>
		<polygon class="st3" points="113,127.1 110,130 106.4,124 		"/>
		<polygon class="st2" points="104,130.5 102.1,124.1 106.4,124 		"/>
		<polygon class="st1" points="97.3,134.5 97.3,129.9 103.9,132.3 		"/>
		<polygon class="st3" points="111.9,136.4 104,130.5 103.9,132.3 		"/>
		<polygon class="st3" points="120.9,127 122.1,133.2 113,127.1 		"/>
		<polygon class="st3" points="131.3,130.5 125.6,128.1 124.8,124.2 		"/>
		<polygon class="st2" points="97.3,129.9 104,130.5 103.9,132.3 		"/>
		<polygon class="st2" points="111.9,136.4 110,130 107.7,133.2 		"/>
		<polygon class="st2" points="122.1,133.2 112.4,132.2 113,127.1 		"/>
		<polygon class="st2" points="124.4,84.9 126.1,82.4 122.4,82.3 		"/>
		<polygon class="st3" points="127.3,69.3 131.9,74.1 124.4,79.3 		"/>
		<polygon class="st2" points="122,71.5 125.1,61.6 127.3,69.3 		"/>
		<polygon class="st2" points="121.2,62.4 117.4,65.4 125.1,61.6 		"/>
		<polygon class="st1" points="131.3,94 133.2,93.4 126.3,87.5 		"/>
		<polygon class="st1" points="111.9,136.4 113,127.1 110,130 		"/>
		<polygon class="st2" points="108.6,93.7 112,93.4 114,89.7 		"/>
		<polygon class="st2" points="110.6,90 108.6,93.7 108.6,88 		"/>
		<polygon class="st2" points="108.6,88 106.1,85.6 104.4,86.8 		"/>
		<polygon class="st2" points="126.1,82.4 122.4,82.3 124.4,79.3 		"/>
		<polygon class="st2" points="122,78 118,80.2 122,71.5 		"/>
		<polygon class="st3" points="113.8,99 109.7,101.6 112.3,96.5 		"/>
		<polygon class="st3" points="110.3,100.5 107,100.6 109.7,101.6 		"/>
		<polygon class="st3" points="107.5,103.8 106.1,102.7 107,100.6 		"/>
		<polygon class="st3" points="110.3,94.8 112,93.4 108.6,93.7 		"/>
		<g>
			<path class="st1" d="M107.3,96.6L104,101l2.2,1.7l0.9-2.1c6.5,1.2,5.3-4,5.3-4l1.7-1.4l-3.8-0.4l-2.4,1.2L107.3,96.6z"/>
			<g>
				<path class="st1" d="M111.4,98.6c0-0.2,0.1-0.4,0.1-0.7c0-1.2-1.1-2.2-2.4-2.2s-2.4,1-2.4,2.2c0,0.2,0,0.5,0.1,0.7
					c0.4-0.8,1.3-1.4,2.3-1.4C110.2,97.2,111,97.8,111.4,98.6z"/>
				<path class="st2" d="M111.4,98.6c-0.4-0.8-1.3-1.4-2.3-1.4c-1.1,0-2,0.6-2.3,1.4c0.4,0.8,1.3,1.4,2.3,1.4
					C110.2,100,111,99.4,111.4,98.6z"/>
			</g>
			<ellipse class="st1" cx="108.6" cy="97.3" rx="0.7" ry="0.8"/>
		</g>
		<polygon class="st3" points="99.7,95.2 101.9,88.3 99.3,89.6 		"/>
		<polygon class="st3" points="99,122 97.3,118.1 102.2,120.2 		"/>
		<polygon class="st3" points="97.3,122 97.3,118.1 99,122 		"/>
		<polygon class="st2" points="102.2,120.2 100.8,114.2 97.3,118.1 		"/>
		<polygon class="st1" points="97.3,118.1 97.3,108.4 100.8,114.2 		"/>
		<polygon class="st3" points="97.3,108.4 100.8,103 100.8,114.2 		"/>
		<polygon class="st3" points="104.4,107.3 103.1,111 100.8,103 		"/>
		<polygon class="st2" points="97.3,105.5 97.3,100.5 100.8,103 		"/>
		<polygon class="st1" points="97.3,100.5 99.7,95.2 100.8,103 		"/>
		<polygon class="st3" points="97.3,105.5 97.3,108.4 100.8,103 		"/>
		<polygon class="st6" points="114,74.3 112.2,69.2 109.8,72.7 		"/>
		<polygon class="st9" points="112.2,69.2 105.2,69.1 109.8,72.7 		"/>
		<polygon class="st2" points="97.3,69.1 97.3,71.1 105.2,69.1 		"/>
		<polygon class="st2" points="105.2,69.1 101.7,70 109.8,72.7 		"/>
		<polygon class="st8" points="112.2,69.2 101.3,66.9 105.2,69.1 		"/>
		<polygon class="st8" points="99,68.1 97.3,66 101.3,66.9 		"/>
		<polygon class="st3" points="103.6,73.6 109.8,72.7 109.8,76.8 		"/>
		<polygon class="st8" points="122.4,82.3 120.7,86 115.7,81.3 		"/>
		<polygon class="st8" points="118,80.2 114,74.3 115.7,81.3 		"/>
		<polygon class="st3" points="114,74.3 115.7,81.3 109.8,72.7 		"/>
		<polygon class="st3" points="109.8,72.7 111.4,75.1 109.8,76.8 		"/>
		<polygon class="st3" points="115.7,81.3 112.6,76.8 109.8,76.8 		"/>
		<polygon class="st1" points="112.6,76.8 111.4,75.1 109.8,76.8 		"/>
		<polygon class="st8" points="112.2,69.2 117.4,65.4 114,74.3 		"/>
		<polygon class="st3" points="125.1,61.6 130.4,64.3 127.3,69.3 		"/>
		<polygon class="st2" points="131.9,74.1 130.4,64.3 127.3,69.3 		"/>
		<polygon class="st3" points="125.1,61.6 122,71.5 117.4,65.4 		"/>
		<polygon class="st1" points="122,71.5 114,74.3 117.4,65.4 		"/>
		<polygon class="st3" points="122,71.5 118,80.2 114,74.3 		"/>
	</g>
</g>
</svg>
