<svg id="Layer_1" data-name="Layer 1" xmlns="http://www.w3.org/2000/svg" viewBox="0 0 50 50"><defs><style>.cls-1{fill:#cc4e0b;}.cls-2{fill:#fff;}</style></defs><title>social</title><path class="cls-1" d="M49.65,25.13A24.61,24.61,0,1,1,25.07.56,24.56,24.56,0,0,1,49.65,25.13Z"/><path class="cls-2" d="M35.51,18.83a5.73,5.73,0,0,0,2.24-2.73,12.24,12.24,0,0,1-3.29,1.19,4.65,4.65,0,0,0-3.57-1.61,5,5,0,0,0-5,5,6.1,6.1,0,0,0,.14,1.12,14,14,0,0,1-10.29-5.25,5.18,5.18,0,0,0-.63,2.52,4.67,4.67,0,0,0,2.17,4.13,4.62,4.62,0,0,1-2.24-.56v0.07A5,5,0,0,0,19,27.65a6.47,6.47,0,0,1-1.33.14,3.53,3.53,0,0,1-.84-0.14,4.91,4.91,0,0,0,4.62,3.5,9.93,9.93,0,0,1-6.16,2.1H14.08a14.15,14.15,0,0,0,7.63,2.24c9.17,0,14.14-7.56,14.14-14.21V20.65a11,11,0,0,0,2.52-2.59A12.36,12.36,0,0,1,35.51,18.83Z"/></svg>