<?xml version="1.0" encoding="utf-8"?>
<!-- Generator: Adobe Illustrator 23.0.1, SVG Export Plug-In . SVG Version: 6.00 Build 0)  -->
<svg version="1.1" id="Layer_1" xmlns="http://www.w3.org/2000/svg" xmlns:xlink="http://www.w3.org/1999/xlink" x="0px" y="0px"
	 viewBox="0 0 1493.64 360" style="enable-background:new 0 0 1493.64 360;" xml:space="preserve">
<style type="text/css">
	.st0{fill:#66CC00;}
</style>
<g>
	<g>
		<polygon class="st0" points="342.66,0 251.09,279.56 212.52,149.81 150.49,149.81 221.78,354.62 287.84,354.62 412.43,0 		"/>
		<polygon class="st0" points="106.58,279.55 62.79,149.81 0,149.81 71.25,354.63 143.48,354.63 172.9,267.15 141.09,175.97 		"/>
	</g>
	<polygon class="st0" points="860.41,242.22 960.91,149.76 877.18,149.76 812.72,210.38 812.72,57.41 753.52,57.41 753.52,354.62 
		812.72,354.62 812.72,272.67 892.72,354.62 972.8,354.62 	"/>
	<path class="st0" d="M732.82,210.87c0,0.02-8-5.5-28.43-5.5c-14.96,0-27.82,8.82-32.8,15.47c-4.99,6.65-10.39,19.94-10.39,42.79
		v90.98h-62.13V149.8h62.13l-0.42,29.08h0.83c11.63-22.44,28.66-33.14,50.68-33.14c13.71,0,20.52,4.05,20.52,4.05V210.87z"/>
	<g>
		<path class="st0" d="M466.01,360c-65.13,0-114.4-40.5-114.4-106.88c0-66.38,49.27-107.3,114.4-107.3
			c65.13,0,113.98,40.92,113.98,107.3C579.99,319.5,531.14,360,466.01,360z M466.01,198.42c-29.64,0-46.76,22.96-46.76,53.44
			c0,30.48,17.12,53.44,46.76,53.44c29.23,0,46.76-22.96,46.76-53.44C512.77,221.38,495.23,198.42,466.01,198.42z"/>
	</g>
	<path class="st0" d="M1493.64,354.67h-63.87l-1.25-20.97c-8.77,8.77-25.46,26.3-58.86,26.3c-36.32,0-74.72-19.62-74.72-65.54
		c0-45.92,42.16-61.36,80.15-63.03l51.76-2.09v-4.59c0-21.71-15.45-32.98-42.16-32.98c-26.3,0-52.6,11.69-63.03,18.37l-17.53-43.41
		c17.53-8.77,49.68-20.87,88.08-20.87c38.41,0,60.53,8.77,76.81,23.79c15.86,15.03,24.63,35.06,24.63,69.71V354.67z M1427.27,264.83
		l-32.98,2.09c-20.45,0.84-32.56,9.6-32.56,25.05c0,15.86,12.94,25.46,31.31,25.46c17.95,0,30.06-11.69,34.23-18.78V264.83z"/>
	<path class="st0" d="M1294.89,149.76l-84.35,204.86h-62.33l-83.94-204.86h69.39l46.54,129.65l46.12-129.65H1294.89z"/>
	<path class="st0" d="M1046.63,354.62h-66.49V149.76h66.49V354.62z"/>
	<polygon class="st0" points="980.11,132.52 980.11,57.42 1061.57,57.42 	"/>
</g>
</svg>
