<svg id="Capa_1" data-name="Capa 1" xmlns="http://www.w3.org/2000/svg" viewBox="0 0 158.68 33.87"><defs><style>.cls-1{fill:#003767;}.cls-2{fill:#009fd3;}</style></defs><title>BBVACompass</title><path class="cls-1" d="M136.13,21.86a6.37,6.37,0,0,0-4.49,1.92v-.21c0-1.07-.09-1.57-1-1.57h-.86V39.15h1.82v-5a6.33,6.33,0,0,0,3.91,1.14c1.34,0,5.73-.5,5.73-6.85C141.28,22.5,137.68,21.86,136.13,21.86Zm-.8,11.81a4.65,4.65,0,0,1-3.69-1.48V25.86c1.39-1.63,2.76-2.4,4.3-2.4,2.25,0,3.49,1.8,3.49,5.07C139.43,32.78,137.2,33.67,135.33,33.67Z" transform="translate(-17.53 -17.57)"/><path class="cls-1" d="M152.26,23a3.57,3.57,0,0,0-1.55-.87,7.41,7.41,0,0,0-2-.24,9,9,0,0,0-4.86,1.27c.68,1.44,1.4,1.09,2.34.69a6,6,0,0,1,2.41-.44,7.08,7.08,0,0,1,1.26.18,2.93,2.93,0,0,1,.67.27,1.9,1.9,0,0,1,.68.73,2.65,2.65,0,0,1,.25,1.23v1.89a13.06,13.06,0,0,0-3-.31,9,9,0,0,0-2.12.23,6.21,6.21,0,0,0-1.31.49,3.67,3.67,0,0,0-1.42,1.31,3.72,3.72,0,0,0-.51,2,4.52,4.52,0,0,0,.31,1.7,3.55,3.55,0,0,0,1.59,1.7,5.17,5.17,0,0,0,2.47.57h0a6.17,6.17,0,0,0,2.66-.54,5.37,5.37,0,0,0,1.33-.9c0,.18,0,.32,0,.45a1.06,1.06,0,0,0,.13.39.81.81,0,0,0,.17.24,1,1,0,0,0,.38.19,1.78,1.78,0,0,0,.47,0h.64V25.71a4.54,4.54,0,0,0-.33-1.77A2.83,2.83,0,0,0,152.26,23Zm-.82,9a5.52,5.52,0,0,1-1.53,1.3,4.52,4.52,0,0,1-2.3.54,4.19,4.19,0,0,1-1.1-.14,2.34,2.34,0,0,1-.66-.3,2,2,0,0,1-.68-.77,2.83,2.83,0,0,1-.26-1.28,2.13,2.13,0,0,1,.26-1.1,2.31,2.31,0,0,1,.5-.59,3,3,0,0,1,1.2-.56,6.21,6.21,0,0,1,1.64-.19,13.17,13.17,0,0,1,2.93.34Z" transform="translate(-17.53 -17.57)"/><path class="cls-1" d="M87,19.23a7.59,7.59,0,0,1,1.11.07,5.69,5.69,0,0,1,1.79.51l0,0a1,1,0,0,1,.17.1l.25.15h0l.13.09.15.12.38.33.39.28c.47.29.94.29,1.66-.52a7.07,7.07,0,0,0-.71-.86,6.65,6.65,0,0,0-3-1.72h0a9.88,9.88,0,0,0-1.23-.2c-.36,0-.75-.05-1.18-.05-3.87,0-7.77,2.73-7.77,8.83v.1c0,6.1,3.9,8.83,7.77,8.83.43,0,.82,0,1.18,0a8.32,8.32,0,0,0,1.23-.2h0a6.55,6.55,0,0,0,3-1.72,7.07,7.07,0,0,0,.71-.86c-.72-.81-1.19-.81-1.66-.52a3.89,3.89,0,0,0-.39.29l-.38.32-.15.12-.13.09h0l-.25.15a1,1,0,0,1-.17.1l0,0a5.66,5.66,0,0,1-1.79.53,9.41,9.41,0,0,1-1.11.06c-3.63,0-5.89-2.73-5.89-7.12v-.2C81.12,22,83.38,19.23,87,19.23Z" transform="translate(-17.53 -17.57)"/><path class="cls-1" d="M160.77,27.53c-2.6-.44-3-1-3-2.12,0-1.34.92-2,2.82-2a4.62,4.62,0,0,1,2.56.63,1,1,0,0,0,1.38-.34,3.16,3.16,0,0,0,.2-.27l-.2-.21a5.58,5.58,0,0,0-4-1.37c-2.81,0-4.55,1.4-4.55,3.65,0,2.65,2.25,3.35,4.21,3.66,2.66.43,3.13,1,3.13,2.19,0,1.62-1,2.41-3.13,2.41a5.43,5.43,0,0,1-2.28-.46h0c-.87-.41-1.36-.83-2-.09a3.74,3.74,0,0,0-.31.4c.08.09.18.19.31.31a5.39,5.39,0,0,0,1.08.73,7.07,7.07,0,0,0,1,.37,8.3,8.3,0,0,0,2.33.3c3.14,0,4.88-1.44,4.88-4.06S163,27.88,160.77,27.53Z" transform="translate(-17.53 -17.57)"/><path class="cls-1" d="M171.86,27.53c-2.6-.44-3-1-3-2.12,0-1.34.92-2,2.82-2a4.59,4.59,0,0,1,2.56.63,1,1,0,0,0,1.38-.34l.2-.27-.2-.21a5.59,5.59,0,0,0-4-1.37c-2.8,0-4.54,1.4-4.54,3.65,0,2.65,2.25,3.35,4.21,3.66,2.66.43,3.13,1,3.13,2.19,0,1.62-1,2.41-3.13,2.41a5.48,5.48,0,0,1-2.29-.46h0c-.86-.41-1.35-.83-2-.09a3.74,3.74,0,0,0-.31.4l.31.31a5.39,5.39,0,0,0,1.08.73,6.9,6.9,0,0,0,1,.37,8.41,8.41,0,0,0,2.33.3c3.15,0,4.89-1.44,4.89-4.06S174.11,27.88,171.86,27.53Z" transform="translate(-17.53 -17.57)"/><path class="cls-1" d="M104.05,22.9a6,6,0,0,0-3.57-1,6.75,6.75,0,0,0-2.51.45,5.59,5.59,0,0,0-2.68,2.34,7.73,7.73,0,0,0-1,3.93,8.36,8.36,0,0,0,.44,2.78,5.83,5.83,0,0,0,2.15,2.91,6.28,6.28,0,0,0,3.57,1,6.64,6.64,0,0,0,2.51-.47,5.39,5.39,0,0,0,2.67-2.32,7.46,7.46,0,0,0,1-3.93,8.61,8.61,0,0,0-.43-2.77A5.8,5.8,0,0,0,104.05,22.9Zm.44,7.91a3.9,3.9,0,0,1-4,2.92,4.65,4.65,0,0,1-1.82-.34,3.7,3.7,0,0,1-1.84-1.7,6.57,6.57,0,0,1-.67-3.11,7.43,7.43,0,0,1,.3-2.21,4.21,4.21,0,0,1,1.48-2.18,4.09,4.09,0,0,1,2.55-.77,4.45,4.45,0,0,1,1.8.34,3.6,3.6,0,0,1,1.83,1.74,6.27,6.27,0,0,1,.68,3.08A7.52,7.52,0,0,1,104.49,30.81Z" transform="translate(-17.53 -17.57)"/><path class="cls-1" d="M126,22.86a2.87,2.87,0,0,0-1.17-.78,4.65,4.65,0,0,0-1.46-.22,7.11,7.11,0,0,0-2.94.65,10,10,0,0,0-2,1.21,2.81,2.81,0,0,0-.33-.62,2.92,2.92,0,0,0-1.26-1,4.23,4.23,0,0,0-1.56-.27,6.94,6.94,0,0,0-3,.68,12.07,12.07,0,0,0-1.75,1v0a4.73,4.73,0,0,0,0-.7,1.59,1.59,0,0,0-.07-.39.69.69,0,0,0-.15-.24.45.45,0,0,0-.16-.12.58.58,0,0,0-.27-.09l-.27,0h-.86V35.2h1.81V25.36a10.89,10.89,0,0,1,1.93-1.3,5.21,5.21,0,0,1,2.36-.58,3.63,3.63,0,0,1,.85.09,1.78,1.78,0,0,1,.48.22,1.4,1.4,0,0,1,.49.62,3,3,0,0,1,.19,1.16V35.2h1.82V25.34a11.81,11.81,0,0,1,1.92-1.27,5.11,5.11,0,0,1,2.31-.59,3.9,3.9,0,0,1,.9.09,2,2,0,0,1,.49.22,1.38,1.38,0,0,1,.48.62,3.27,3.27,0,0,1,.17,1.16V35.2h1.81v-10a4.52,4.52,0,0,0-.25-1.54A2.86,2.86,0,0,0,126,22.86Z" transform="translate(-17.53 -17.57)"/><path class="cls-1" d="M68.82,19.45c-.49-1.45-.76-1.79-2.14-1.79H63.33L58,35.22h2.74l1.15-3.78h6.38l1.16,3.78h4.76Zm-6.21,9.41,2.4-8,2.43,8Z" transform="translate(-17.53 -17.57)"/><path class="cls-1" d="M42.21,24.55l.86-1.27c1.81-2.7.56-5.62-3-5.62H32.39V35.23h7.39C46.26,35.23,48.21,27.67,42.21,24.55Zm-4.44,8.33H36.53V20h2.25a2,2,0,0,1,1.58,3.25L38.9,25.39c1.53.37,2.55,1.54,2.55,3.72C41.45,31.75,39.87,32.88,37.77,32.88Z" transform="translate(-17.53 -17.57)"/><path class="cls-1" d="M27.34,24.55l.86-1.27c1.82-2.7.57-5.62-3-5.62H17.53V35.23h7.38C31.4,35.23,33.36,27.67,27.34,24.55Zm-4.43,8.33H21.67V20h2.25a2,2,0,0,1,1.59,3.25L24,25.39c1.54.37,2.56,1.54,2.56,3.72C26.59,31.75,25,32.88,22.91,32.88Z" transform="translate(-17.53 -17.57)"/><path class="cls-1" d="M57.23,17.66,53.27,31,49.93,20c-.62-2-.94-2.29-2.14-2.29h-3.1l5.75,17.56h4.21L60,17.66Z" transform="translate(-17.53 -17.57)"/><path class="cls-2" d="M43.76,45.72c0-2.39,1.37-3.76,3.16-3.76a2.75,2.75,0,0,1,2.74,1.68l-1,.63a1.74,1.74,0,0,0-1.69-1.18c-1.24,0-1.93,1-1.93,2.62s.73,2.71,2,2.71a1.81,1.81,0,0,0,1.78-1.36l1.06.48a2.77,2.77,0,0,1-2.84,2C45.11,49.52,43.76,48.18,43.76,45.72Z" transform="translate(-17.53 -17.57)"/><path class="cls-2" d="M51,49.38V44.17h1.11l.1.84h0A2,2,0,0,1,54,44.06h0l.1,1.11a1.56,1.56,0,0,0-.31,0,1.86,1.86,0,0,0-1.69.93v3.3Z" transform="translate(-17.53 -17.57)"/><path class="cls-2" d="M54.46,46.78A2.5,2.5,0,0,1,57,44.06c1.13,0,2.29.7,2.29,2.82v.29H55.67a1.32,1.32,0,0,0,1.42,1.36,2.31,2.31,0,0,0,1.61-.67l.48.8a3,3,0,0,1-2.16.83A2.44,2.44,0,0,1,54.46,46.78Zm3.67-.51c-.06-.76-.46-1.23-1.19-1.23a1.28,1.28,0,0,0-1.26,1.23Z" transform="translate(-17.53 -17.57)"/><path class="cls-2" d="M59.9,48.09c0-1.15,1-1.86,3.41-2.13V45.8c0-.48-.29-.75-.91-.75a2.56,2.56,0,0,0-1.68.7L60.06,45a3.46,3.46,0,0,1,2.5-.95A1.68,1.68,0,0,1,64.49,46v3.43H63.41l-.1-.67a2.52,2.52,0,0,1-1.92.75A1.35,1.35,0,0,1,59.9,48.09Zm3.41-.16V46.78c-1.68.23-2.23.6-2.23,1.12s.29.63.74.63A2.07,2.07,0,0,0,63.31,47.93Z" transform="translate(-17.53 -17.57)"/><path class="cls-2" d="M66.19,48V45.12h-.88v-.95h.88V42.42l1.2-.17v1.92h1.35v.95H67.39v2.64c0,.56.24.74.73.74a2,2,0,0,0,.53-.08l.1.95a6.75,6.75,0,0,1-1,.08C66.69,49.45,66.19,49.08,66.19,48Z" transform="translate(-17.53 -17.57)"/><path class="cls-2" d="M69.71,42.75a.62.62,0,0,1,.68-.64.64.64,0,1,1,0,1.28A.62.62,0,0,1,69.71,42.75Zm.09,6.63V44.17H71v5.21Z" transform="translate(-17.53 -17.57)"/><path class="cls-2" d="M72.42,49.38V44.17h1.11l.1.73a2.51,2.51,0,0,1,1.88-.84,1.38,1.38,0,0,1,1.54,1.52v3.8h-1.2V45.94c0-.58-.24-.88-.8-.88a2.16,2.16,0,0,0-1.42.68v3.64Z" transform="translate(-17.53 -17.57)"/><path class="cls-2" d="M77.81,50.13a1.17,1.17,0,0,1,.85-1.1.7.7,0,0,1-.4-.64,1.23,1.23,0,0,1,.71-1,1.71,1.71,0,0,1-.83-1.5,1.94,1.94,0,0,1,2.2-1.87,2.33,2.33,0,0,1,1.6.55,2.4,2.4,0,0,1,1.19-.51l.16,1a3.19,3.19,0,0,0-1,.15,1.32,1.32,0,0,1,.19.71,1.91,1.91,0,0,1-2.17,1.86,2.38,2.38,0,0,1-.73-.11c-.16.09-.27.2-.27.34s.14.27.6.31l.93.06c1.54.1,2.15.51,2.15,1.43s-1.08,1.59-2.69,1.59C78.52,51.41,77.81,50.89,77.81,50.13ZM82,49.92c0-.37-.27-.51-1.33-.58l-.9-.05a1.73,1.73,0,0,1-.32,0,.71.71,0,0,0-.48.66c0,.47.53.62,1.59.62C81.4,50.54,82,50.3,82,49.92Zm-.54-4a.94.94,0,0,0-1.06-1,1,1,0,0,0-1.07,1c0,.64.41,1,1.08,1A.93.93,0,0,0,81.41,46Z" transform="translate(-17.53 -17.57)"/><path class="cls-2" d="M86.38,45.74c0-2.45,1.52-3.78,3.29-3.78s3.27,1.33,3.27,3.78-1.52,3.78-3.27,3.78S86.38,48.19,86.38,45.74Zm5.34,0c0-1.65-.82-2.65-2-2.65s-2.06,1-2.06,2.65.83,2.68,2.06,2.68S91.72,47.4,91.72,45.74Z" transform="translate(-17.53 -17.57)"/><path class="cls-2" d="M93.91,51.44V44.17H95l.1.68a2,2,0,0,1,1.66-.79c1.19,0,2.07.89,2.07,2.71s-.89,2.69-2.09,2.69a2.06,2.06,0,0,1-1.64-.65v2.45Zm3.73-4.66c0-1.09-.47-1.69-1.25-1.69a1.8,1.8,0,0,0-1.27.65v2.14a1.77,1.77,0,0,0,1.29.63C97.16,48.51,97.64,48,97.64,46.78Z" transform="translate(-17.53 -17.57)"/><path class="cls-2" d="M99.82,51.44V44.17h1.12l.09.68a2.07,2.07,0,0,1,1.67-.79c1.19,0,2.06.89,2.06,2.71s-.88,2.69-2.08,2.69a2.1,2.1,0,0,1-1.65-.65v2.45Zm3.73-4.66c0-1.09-.47-1.69-1.25-1.69a1.82,1.82,0,0,0-1.27.65v2.14a1.79,1.79,0,0,0,1.29.63C103.07,48.51,103.55,48,103.55,46.78Z" transform="translate(-17.53 -17.57)"/><path class="cls-2" d="M105.44,46.78a2.55,2.55,0,1,1,5.09,0,2.55,2.55,0,1,1-5.09,0Zm3.89,0c0-1-.42-1.69-1.34-1.69s-1.34.66-1.34,1.69.41,1.7,1.34,1.7S109.33,47.78,109.33,46.78Z" transform="translate(-17.53 -17.57)"/><path class="cls-2" d="M111.51,49.38V44.17h1.11l.1.84h0a2,2,0,0,1,1.84-.95h.05l.1,1.11a1.56,1.56,0,0,0-.31,0,1.86,1.86,0,0,0-1.69.93v3.3Z" transform="translate(-17.53 -17.57)"/><path class="cls-2" d="M115.94,48V45.12h-.88v-.95h.88V42.42l1.21-.17v1.92h1.34v.95h-1.34v2.64c0,.56.23.74.72.74a2.12,2.12,0,0,0,.54-.08l.09.95a6.61,6.61,0,0,1-1,.08C116.45,49.45,115.94,49.08,115.94,48Z" transform="translate(-17.53 -17.57)"/><path class="cls-2" d="M119.45,48v-3.8h1.21v3.47c0,.55.23.83.79.83a2.13,2.13,0,0,0,1.41-.69V44.17h1.21v5.21H123l-.1-.72a2.53,2.53,0,0,1-1.87.83A1.38,1.38,0,0,1,119.45,48Z" transform="translate(-17.53 -17.57)"/><path class="cls-2" d="M125.43,49.38V44.17h1.12l.09.73a2.51,2.51,0,0,1,1.88-.84,1.38,1.38,0,0,1,1.54,1.52v3.8h-1.2V45.94c0-.58-.24-.88-.8-.88a2.16,2.16,0,0,0-1.42.68v3.64Z" transform="translate(-17.53 -17.57)"/><path class="cls-2" d="M131.33,42.75a.62.62,0,0,1,.69-.64.64.64,0,1,1,0,1.28A.62.62,0,0,1,131.33,42.75Zm.1,6.63V44.17h1.2v5.21Z" transform="translate(-17.53 -17.57)"/><path class="cls-2" d="M134.44,48V45.12h-.89v-.95h.89V42.42l1.2-.17v1.92H137v.95h-1.35v2.64c0,.56.24.74.73.74a2.11,2.11,0,0,0,.53-.08l.1.95a6.78,6.78,0,0,1-1,.08C134.94,49.45,134.44,49.08,134.44,48Z" transform="translate(-17.53 -17.57)"/><path class="cls-2" d="M138,42.75a.63.63,0,0,1,.69-.64.64.64,0,1,1,0,1.28A.63.63,0,0,1,138,42.75Zm.1,6.63V44.17h1.2v5.21Z" transform="translate(-17.53 -17.57)"/><path class="cls-2" d="M140.37,46.78a2.5,2.5,0,0,1,2.49-2.72c1.14,0,2.3.7,2.3,2.82v.29h-3.58A1.32,1.32,0,0,0,143,48.53a2.35,2.35,0,0,0,1.62-.67l.48.8a3,3,0,0,1-2.17.83A2.44,2.44,0,0,1,140.37,46.78Zm3.67-.51A1.15,1.15,0,0,0,142.85,45a1.28,1.28,0,0,0-1.26,1.23Z" transform="translate(-17.53 -17.57)"/><path class="cls-2" d="M145.77,48.66l.46-.81a2.86,2.86,0,0,0,1.8.71c.65,0,1-.21,1-.57s-.3-.58-1.17-.75c-1.1-.23-2-.52-2-1.65,0-.92.77-1.53,1.92-1.53a3.37,3.37,0,0,1,2.12.66l-.42.85A2.83,2.83,0,0,0,148,45c-.59,0-.87.22-.87.53s.28.51,1.06.67c1.17.24,2.07.52,2.07,1.62s-1,1.65-2.2,1.65A3.3,3.3,0,0,1,145.77,48.66Z" transform="translate(-17.53 -17.57)"/></svg>