<?xml version="1.0" encoding="utf-8"?>
<!-- Generator: Adobe Illustrator 23.0.1, SVG Export Plug-In . SVG Version: 6.00 Build 0)  -->
<svg version="1.1" id="svg5231" xmlns:svg="http://www.w3.org/2000/svg"
	 xmlns="http://www.w3.org/2000/svg" xmlns:xlink="http://www.w3.org/1999/xlink" x="0px" y="0px" viewBox="0 0 769 263"
	 style="enable-background:new 0 0 769 263;" xml:space="preserve">
<style type="text/css">
	.st0{fill:#55A61D;}
</style>
<path id="path5009" class="st0" d="M55.4,174.2h47.3c10.7,0,18.6-7,18.6-16.1c0-9.3-7.8-16.3-18.6-16.3H55.4V174.2z M55.4,119.1H98
	c10.5,0,16.1-6.8,16.1-14.7c0-7.7-5.6-14.4-16.1-14.4H55.4V119.1z M31.5,141.8H16v-22.7h15.5V67.3h69.2c19.8,0,37.4,11.6,37.4,34.7
	c0,12-6.2,21.5-15.9,25.8c13.4,4.3,23.1,15.1,23.1,31.6c0,23.1-17.1,37.6-39.8,37.6H31.5V141.8z"/>
<path id="path5013" class="st0" d="M240.2,136.7c-4.5-15.3-15.9-23.3-29.5-23.3c-13.6,0-24.8,8.5-28.3,23.3H240.2z M260,175.3
	c-12,15.1-28.5,24.1-46.5,24.4c-34.9,0-55.1-26.2-55.1-52.6s20.2-52.7,55.1-52.7c20.9,0,51.8,17.1,51.8,56.2v3.9h-83
	c1.3,15.3,15.5,26.2,30.6,26.2c11.6,0,21.5-5.6,28.9-15.5L260,175.3z"/>
<path id="path5017" class="st0" d="M286.9,97h21.5v12.6h0.4c6-9.3,16.9-15.3,30.6-15.3c21.1,0,38.8,17.5,38.8,42.3v60.3h-21.5v-55.5
	c0-18.2-9.5-25.6-23.7-25.6c-13.8,0-24.6,8.9-24.6,25.2v55.9h-21.5V97z"/>
<path id="path5021" class="st0" d="M406.6,117.2h-12.2V97h12.2V70.4l21.5-5.8V97h15.3v20.2h-15.3V197h-21.5V117.2z"/>
<path id="path5025" class="st0" d="M480.7,67.3v89.4c0,11.6,2.5,15.7,8.9,19.4l11.6,6.6l-9.5,16.9c-22.1-10.5-32.4-18.2-32.4-39
	V67.3H480.7z"/>
<path id="path5029" class="st0" d="M588.1,136.7c-4.5-15.3-15.9-23.3-29.5-23.3c-13.6,0-24.8,8.5-28.3,23.3H588.1z M607.9,175.3
	c-12,15.1-28.5,24.1-46.5,24.4c-34.9,0-55.1-26.2-55.1-52.6s20.2-52.7,55.1-52.7c20.9,0,51.8,17.1,51.8,56.2v3.9h-83
	c1.2,15.3,15.5,26.2,30.6,26.2c11.6,0,21.5-5.6,28.9-15.5L607.9,175.3z"/>
<path id="path5033" class="st0" d="M631.2,97h21.5v58.6c0,16.7,10.3,23.7,23.5,23.7c16.7,0,24.8-10.3,24.8-25.8V97h21.5v96.8
	c0,30.6-27,44-45.6,44c-22.5,0-32.6-8.5-42.3-19.6l18.2-11.1c6.8,6.6,13.6,10.5,22.9,10.5c14.2,0,26.6-8.7,26.6-26.2V186h-0.4
	c-8.5,9.5-16.3,13.6-30.1,13.6c-22.3,0-40.5-16.7-40.5-44.8V97z"/>
<path id="path5037" class="st0" d="M744.4,110.3h3.5c1.6,0,2.4-1.2,2.4-2.7c0-1.2-0.6-2.6-2.4-2.6h-3.5V110.3z M744.4,119.9h-2.7
	v-16.7h6.6c3.2,0,4.7,2.1,4.7,4.2c0,2-1.5,3.5-3.6,3.8v0.1c2.1,0.2,2.8,0.9,2.9,4.2c0,0.7,0.3,3.3,0.7,4.4h-2.7
	c-0.6-1.2-0.5-3.3-0.7-5.5c-0.2-1.8-1.7-1.9-2.5-1.9h-2.7V119.9z M734.7,111.6c0,6.9,5.5,12.3,12.4,12.3c6.8,0,12.3-5.5,12.3-12.3
	c0-6.8-5.4-12.3-12.3-12.3C740.3,99.2,734.7,104.7,734.7,111.6 M761.6,111.5c0,8.1-6.5,14.5-14.4,14.5c-8,0-14.5-6.4-14.5-14.5
	c0-8,6.5-14.4,14.5-14.4C755.1,97.1,761.6,103.5,761.6,111.5"/>
</svg>
