<?xml version="1.0" encoding="utf-8"?>
<!-- Generator: Adobe Illustrator 23.0.1, SVG Export Plug-In . SVG Version: 6.00 Build 0)  -->
<svg version="1.1" id="Layer_1" xmlns="http://www.w3.org/2000/svg" xmlns:xlink="http://www.w3.org/1999/xlink" x="0px" y="0px"
	 viewBox="0 0 229 61.4" style="enable-background:new 0 0 229 61.4;" xml:space="preserve">
<style type="text/css">
	.st0{fill-rule:evenodd;clip-rule:evenodd;fill:#B32541;stroke:#B32541;stroke-width:0.6211;stroke-miterlimit:2.6131;}
	.st1{fill-rule:evenodd;clip-rule:evenodd;fill:#B32541;}
</style>
<polygon class="st0" points="53.8,17.3 55,11.7 30.4,11.7 27.2,27 24.4,39.3 49.7,39.3 51,33.5 36.9,33.5 38.2,27.5 50.1,27.5 
	51.4,21.9 39.5,21.9 40.5,17.3 "/>
<path class="st1" d="M74.5,27.5h8.6c0.3-1.8,0.9-4.5,1-6.7c0.1-2.6-0.9-4.4-3.1-5.7c-3.1-1.8-7.8-1.7-11.3-1.8
	c-4.8-0.2-10.4,0.4-13.4,4.7c-1.5,2.2-2.4,5.6-2.8,8.2c-0.4,3.2-2,8.6,0.9,11.3c2.2,2,7,2.6,9.9,2.6c2.9,0,5.7-0.2,8.5-0.8l7.4,9
	h11.6L74.5,27.5L74.5,27.5z M73.2,27.7C72.2,32,71,35.6,66,35.6c-5,0-3.3-5.4-2.9-8.5c0.7-4.5,2.4-9.1,7.5-8.7
	C75.8,18.6,74,24.1,73.2,27.7L73.2,27.7z"/>
<polygon class="st1" points="120.6,14.8 117.9,27 115.3,39.3 125.3,39.3 130.8,14.8 "/>
<polygon class="st1" points="155.5,19.7 156.7,14.8 134.6,14.8 129.3,39.3 139.5,39.3 141.7,28.8 151.7,28.8 152.1,27 152.7,24.2 
	142.8,24.2 143.8,19.7 "/>
<path class="st1" d="M88.2,14.8h10.3l-3.9,17.4c-0.5,2.1,1.5,3.2,3.2,3.4c2.2,0.2,4.2-1.2,4.7-3.5l4.1-17.3h10.2l-4.1,18.4
	c-1.7,4.8-5.8,6.7-10.2,7.1c-2.8,0.3-5.7,0-8.3-0.4L85.1,29L88.2,14.8L88.2,14.8z"/>
<path class="st1" d="M178.3,14.8h12.9l4,6.4l6.4-6.4h9.9l-12.9,11.4l8.5,13.1h-12.6l-4.1-7.5l-7.1,7.5H168l-0.6-5.4h-10.5l-3.7,5.4
	h-7.1l17.2-24.6h12.3l2.4,19.9l8.2-7.6L178.3,14.8L178.3,14.8z M160.3,28.7l5.5-8.4l1,8.4H160.3L160.3,28.7z"/>
</svg>
