<?xml version="1.0" encoding="utf-8"?>
<!-- Generator: Adobe Illustrator 23.0.1, SVG Export Plug-In . SVG Version: 6.00 Build 0)  -->
<svg version="1.1" id="Layer_1" xmlns="http://www.w3.org/2000/svg" xmlns:xlink="http://www.w3.org/1999/xlink" x="0px" y="0px"
	 viewBox="0 0 276 71" style="enable-background:new 0 0 276 71;" xml:space="preserve">
<style type="text/css">
	.st0{fill:#ED1B2D;}
</style>
<path class="st0" d="M112.5,23.1h6.9v2.4c0.7-0.6,3.1-2.9,7.6-2.9c5.2,0,9.3,3.8,9.3,9.9v15.7H129V34.4c0-3.4-1.6-5.4-4.6-5.4
	c-2.9,0-4.6,1.9-4.6,5.4v13.7h-7.3L112.5,23.1 M182.1,35.6c0-7.2,5.8-13.1,13.3-13.1c7.6,0,13.3,5.9,13.3,13.1s-5.8,13.1-13.3,13.1
	C187.8,48.7,182.1,42.8,182.1,35.6 M189.3,35.6c0,3.4,2.6,6.3,6.2,6.3c3.6,0,6.2-2.8,6.2-6.3s-2.6-6.3-6.2-6.3
	C191.9,29.3,189.3,32.2,189.3,35.6 M81.8,35.6c0-7.2,5.8-13.1,13.3-13.1c7.6,0,13.3,5.9,13.3,13.1s-5.8,13-13.3,13
	C87.6,48.7,81.8,42.8,81.8,35.6 M89,35.6c0,3.5,2.6,6.3,6.2,6.3s6.2-2.8,6.2-6.3s-2.6-6.3-6.2-6.3S89,32.2,89,35.6 M244.1,20.4h7.4
	V14h-7.4V20.4z M244.1,48.1h7.4v-25h-7.4V48.1z M257.2,48.1h7.4V14h-7.4V48.1z M220,48.1h-7V14h7.1v11.1c0.4-0.3,2.7-2.6,7.7-2.6
	c6.6,0,12.1,5.6,12.1,13.1c0,7.4-5.8,13.1-12.1,13.1c-4.8,0-7.1-2.1-7.6-2.5L220,48.1 M232.3,35.6c0-3.5-2.7-6.2-6.2-6.2
	s-6.3,2.7-6.3,6.3c0,3.5,2.7,6.2,6.3,6.2C229.6,41.8,232.3,39.1,232.3,35.6 M38.8,48.1h8.6l7.7-9.9l4.8,4.9l-11,13.7h8.6l7-9.1
	l13.2,13.5h10.4L69.1,42l15-18.9h-8.6L64.4,37.3l-4.8-4.8L71.9,17h-8.6l-8.4,10.8l-4.6-4.7H40.1l10.3,10.4L38.8,48.1 M14.6,14v34.1
	h22.5v-6.4H22.3v-8.1h14.1v-6.2H22.3v-7.1h14.8V14H14.6 M142.2,14v34.1h7.2V22.4h0.3l6.2,25.7h8.1l6.3-25.7h0.3v25.7h7.2V14h-11.7
	l-5.8,24.9H160L154.3,14H142.2"/>
</svg>
