<?xml version="1.0" encoding="utf-8"?>
<!-- Generator: Adobe Illustrator 23.0.1, SVG Export Plug-In . SVG Version: 6.00 Build 0)  -->
<svg version="1.1" id="Layer_1" xmlns="http://www.w3.org/2000/svg" xmlns:xlink="http://www.w3.org/1999/xlink" x="0px" y="0px"
	 viewBox="0 0 300 75" style="enable-background:new 0 0 300 75;" xml:space="preserve">
<style type="text/css">
	.st0{fill:#003764;}
</style>
<g>
	<path class="st0" d="M48.9,11.9h43v12.8H78.7v39H62.2v-39H48.9V11.9z"/>
	<g>
		<g>
			<path class="st0" d="M160.5,13.2l9.7,16.5l9.6-16.5h18.3L178,41.8v20.8h-15.8V41.8l-20-28.6H160.5z"/>
			<path class="st0" d="M235.4,3.8c-0.6,0-1.1,0.5-1.1,1.1v10.6c-0.5-0.3-1-0.6-1.6-0.8c-4.1-2-9.3-3.2-15.1-3.2
				c-9,0-17.4,2.9-20.6,10.2c-0.9,2-1.4,4.2-1.4,6.4c0,10.4,9,13.2,13.6,14.4c2.1,0.5,11.2,2.1,13,2.7c2.8,0.9,2.8,2.7,2.8,3.1
				c0,3.6-6.2,3.7-7.5,3.7c-2.4,0-4.9-0.4-7-1.1c-4.3-1.4-5.5-3.2-6.9-5.4l-12.1,7.7c2.3,2.7,5.9,7.1,13.9,9.4
				c3.9,1.1,7.8,1.5,11.6,1.5c2.5,0,11.1,0,17.4-4.9v11c0,0.6,0.5,1.1,1.1,1.1s1.1-0.5,1.1-1.1V4.9C236.6,4.3,236.1,3.8,235.4,3.8z
				 M218.2,30.5c-4.3-0.8-6.9-1.4-6.9-3.8c0-2.5,3-3.2,5.7-3.2c2.5,0,6.4,0.4,9.3,1.8c2.2,1.1,3,2.2,3.8,3.2l4.1-3.4v10
				C230.1,32.6,224.1,31.5,218.2,30.5z"/>
			<path class="st0" d="M122,30.5c-4.3-0.8-6.9-1.4-6.9-3.8c0-2.5,3-3.2,5.7-3.2c2.5,0,6.4,0.4,9.3,1.8c2.2,1.1,3,2.2,3.8,3.2
				l9.9-8.2c-1.8-1.8-3.6-3.8-7.3-5.6c-4.1-2-9.3-3.2-15.1-3.2c-7.3,0-14.3,1.9-18.4,6.6V4.8c0-0.6-0.5-1.1-1.1-1.1
				s-1.2,0.5-1.2,1.1v65.3c0,0.6,0.5,1.1,1.2,1.1c0.6,0,1.1-0.5,1.1-1.1V60c1.7,0.9,3.7,1.8,6,2.5c3.9,1.1,7.8,1.5,11.6,1.5
				c2.8,0,12.8,0,19.1-6.4c2.3-2.3,4.5-6,4.5-11.1C144.1,34.4,133.1,32.4,122,30.5z M121.1,52.1c-2.4,0-4.9-0.4-7-1.1
				c-4.3-1.4-5.5-3.2-6.9-5.4l-4.2,2.7V37.6c3,3,7.2,4.3,9.9,5c2,0.5,11.2,2.1,13,2.7c2.8,0.9,2.8,2.7,2.8,3.1
				C128.6,52,122.4,52.1,121.1,52.1z"/>
		</g>
		<g>
			<path class="st0" d="M248.9,13.8c0.5,0.3,0.9,0.7,1.2,1.2c0.3,0.5,0.4,1.1,0.4,1.7s-0.1,1.1-0.4,1.6s-0.7,0.9-1.2,1.2
				c-0.5,0.3-1.1,0.4-1.6,0.4c-0.6,0-1.1-0.1-1.6-0.4s-0.9-0.7-1.2-1.2c-0.3-0.5-0.4-1.1-0.4-1.6c0-0.6,0.1-1.1,0.4-1.7
				c0.3-0.5,0.7-0.9,1.2-1.2c0.5-0.3,1.1-0.4,1.6-0.4C247.9,13.3,248.4,13.5,248.9,13.8z M245.2,13.1c-0.6,0.3-1.2,0.9-1.5,1.5
				c-0.4,0.7-0.6,1.3-0.6,2.1c0,0.7,0.2,1.4,0.5,2c0.4,0.6,0.9,1.1,1.5,1.5s1.3,0.5,2,0.5s1.4-0.2,2-0.5c0.7-0.4,1.2-0.9,1.5-1.5
				c0.4-0.6,0.5-1.3,0.5-2s-0.2-1.4-0.6-2.1s-0.9-1.2-1.5-1.5c-0.6-0.4-1.3-0.5-2-0.5C246.6,12.5,245.9,12.7,245.2,13.1z
				 M246.2,18.8V17h0.2c0.2,0,0.4,0.1,0.6,0.2s0.4,0.4,0.6,0.9l0.4,0.7h1.1l-0.5-0.9c-0.2-0.3-0.3-0.5-0.3-0.5
				c-0.1-0.2-0.2-0.3-0.3-0.3c-0.1-0.1-0.2-0.1-0.3-0.2c0.4-0.1,0.7-0.2,0.9-0.4c0.2-0.2,0.3-0.5,0.3-0.8c0-0.2-0.1-0.4-0.2-0.6
				s-0.2-0.3-0.4-0.4c-0.2-0.1-0.4-0.1-0.7-0.2c-0.1,0-0.6,0-1.4,0h-0.9v4.3C245.4,18.8,246.2,18.8,246.2,18.8z M246.2,15.2h0.4
				c0.5,0,0.8,0,0.9,0.1c0.1,0,0.2,0.1,0.3,0.2c0.1,0.1,0.1,0.2,0.1,0.3c0,0.1,0,0.2-0.1,0.3c-0.1,0.1-0.2,0.2-0.3,0.2
				c-0.1,0-0.4,0.1-0.9,0.1h-0.4V15.2z"/>
		</g>
	</g>
</g>
</svg>
